<?xml version="1.0" standalone="no"?>
<!DOCTYPE svg PUBLIC "-//W3C//DTD SVG 20010904//EN"
 "http://www.w3.org/TR/2001/REC-SVG-20010904/DTD/svg10.dtd">
<svg version="1.0" xmlns="http://www.w3.org/2000/svg"
 width="600.000000pt" height="600.000000pt" viewBox="0 0 600.000000 600.000000"
 preserveAspectRatio="xMidYMid meet">
<metadata>
Created by potrace 1.11, written by Peter Selinger 2001-2013
</metadata>
<g transform="translate(0.000000,600.000000) scale(0.100000,-0.100000)"
fill="#000000" stroke="none">
<path d="M2908 4340 c-522 -522 -952 -950 -954 -950 -2 0 -184 180 -404 400
l-400 400 -273 -101 c-149 -55 -310 -116 -357 -134 -47 -18 -127 -48 -178 -66
l-92 -33 67 -26 c38 -15 115 -43 173 -64 58 -21 114 -42 125 -47 11 -5 90 -34
175 -65 85 -31 166 -61 180 -67 14 -6 59 -22 100 -37 l75 -27 3 -469 2 -469
948 -947 947 -948 1355 0 1355 1 -140 55 c-77 31 -151 59 -165 64 -14 4 -106
39 -205 78 -99 38 -423 162 -720 277 -297 114 -548 212 -558 217 -10 5 -167
158 -349 339 -301 302 -329 332 -323 357 3 15 7 38 10 52 2 14 13 79 25 145
12 66 23 129 24 140 2 11 7 35 10 53 3 17 9 47 12 65 13 78 34 194 39 217 3
14 8 45 11 70 3 25 8 47 9 50 2 3 6 24 9 46 4 22 9 51 11 64 5 26 9 44 25 140
10 61 17 100 25 145 3 17 24 131 46 255 22 124 49 272 59 330 11 58 21 119 24
135 18 104 37 212 41 225 2 8 7 33 10 55 3 23 7 52 10 65 3 14 14 77 25 140
12 63 23 126 26 140 2 14 7 41 10 60 3 19 11 67 19 105 8 39 16 90 20 115 3
25 8 52 10 60 2 8 6 31 9 50 3 19 8 45 10 56 2 12 7 37 10 55 3 19 12 67 20
107 7 39 12 72 9 72 -2 0 -432 -427 -955 -950z"/>
</g>
</svg>
